<svg width="25" height="26" viewBox="0 0 25 26" fill="none" xmlns="http://www.w3.org/2000/svg">
<circle cx="12.5" cy="13.5" r="12" stroke="currentColor"/>
<path d="M11.7638 1C14.69 5.42228 16.1756 7.61765 16.9108 13.5M13.9697 25.2647C13.9697 25.2647 17.6461 19.3824 16.9108 13.5M24.2638 12.0294C20.5873 13.5 16.9108 13.5 16.9108 13.5M0.734375 12.7647C4.41085 13.5 11.7638 14.2353 16.9108 13.5M9.5579 1.73529C12.4841 6.15758 14.705 9.82353 14.705 16.4412M14.705 16.4412C14.705 16.4412 19.852 16.4412 24.2638 14.2353M14.705 16.4412C9.5579 16.4412 4.41085 16.4412 0.734375 15.7059M14.705 16.4412C13.9553 20.079 13.6044 21.9901 11.0285 25.2647" stroke="currentColor"/>
</svg>
