<svg width="27" height="25" viewBox="0 0 27 25" fill="none" xmlns="http://www.w3.org/2000/svg">
<path d="M25.407 0.264949C25.1079 0.277774 24.8168 0.35913 24.5543 0.461882C24.2944 0.563947 22.7985 1.18803 20.5893 2.11119C18.3802 3.03436 15.5084 4.23652 12.6618 5.42857C6.96838 7.81268 1.37367 10.1585 1.37367 10.1585L1.41445 10.1432C1.41445 10.1432 1.07678 10.2535 0.73443 10.4867C0.563255 10.6033 0.379099 10.7538 0.228314 10.9732C0.0775286 11.1926 -0.0327052 11.5035 0.00883663 11.8324C0.15475 12.9876 1.37967 13.3153 1.37967 13.3153L1.38447 13.3176L6.85101 15.1463C6.99038 15.6007 8.50903 20.5548 8.84309 21.604C9.02758 22.1841 9.20027 22.5187 9.38039 22.7469C9.47052 22.8611 9.56499 22.9495 9.66943 23.0142C9.71092 23.0399 9.75457 23.0591 9.79775 23.0763C9.79868 23.0767 9.79923 23.0759 9.80015 23.0763C9.80546 23.0786 9.81045 23.0788 9.81574 23.081L9.80135 23.0775C9.81139 23.0814 9.82129 23.0881 9.83134 23.0916C9.85082 23.0982 9.86277 23.098 9.8877 23.1033C10.5138 23.3169 11.0319 22.9204 11.0319 22.9204L11.0535 22.904L14.4116 19.8597L19.8613 24.0129L19.9297 24.0434C20.8836 24.4574 21.7463 24.2264 22.224 23.8465C22.7017 23.4665 22.8896 22.9767 22.8896 22.9767L22.91 22.9251L26.9146 2.52499C27.017 2.06859 27.0316 1.67409 26.935 1.3176C26.8383 0.961116 26.6035 0.651227 26.3089 0.479465C26.0143 0.307703 25.7061 0.252125 25.407 0.264949ZM25.4394 1.48523C25.5609 1.47973 25.6509 1.4933 25.6793 1.50985C25.7076 1.52639 25.7204 1.52421 25.7476 1.62472C25.7749 1.72523 25.7896 1.93694 25.7152 2.26827L25.7128 2.2753L21.7311 22.557C21.7216 22.5774 21.6387 22.7651 21.4492 22.9157C21.256 23.0694 21.041 23.1894 20.4706 22.9556L14.5111 18.4132L14.3432 18.2843L14.3396 18.2878L12.5574 16.9808L22.573 5.46374C22.65 5.37547 22.6991 5.2673 22.7145 5.15231C22.7299 5.03732 22.7109 4.92044 22.6598 4.81578C22.6086 4.71113 22.5276 4.6232 22.4264 4.56261C22.3252 4.50202 22.2083 4.47138 22.0897 4.47438C21.9738 4.47733 21.8611 4.51228 21.7647 4.5752L7.27197 14.0186L1.79704 12.1864C1.79704 12.1864 1.25338 11.8907 1.22735 11.6847C1.22591 11.6733 1.21949 11.6836 1.24774 11.6425C1.27599 11.6014 1.34701 11.532 1.43604 11.4714C1.6141 11.3501 1.81742 11.2768 1.81742 11.2768L1.83781 11.2697L1.8582 11.2615C1.8582 11.2615 7.4532 8.91561 13.1463 6.53163C15.9928 5.33963 18.864 4.13836 21.0726 3.21542C23.2807 2.29272 24.8761 1.62857 25.0112 1.57549C25.165 1.51529 25.3179 1.49073 25.4394 1.48523ZM18.7975 7.95118L11.2022 16.6854L11.1986 16.6889C11.1867 16.7029 11.1755 16.7173 11.165 16.7323C11.1529 16.7485 11.1417 16.7653 11.1314 16.7827C11.0887 16.8535 11.0614 16.9321 11.0511 17.0136C11.051 17.0152 11.051 17.0167 11.0511 17.0183L10.0616 21.3672C10.0452 21.3202 10.0336 21.303 10.016 21.2477V21.2465C9.70177 20.2595 8.26896 15.5873 8.07072 14.9411L18.7975 7.95118ZM12.0597 18.1167L13.4245 19.1177L11.4192 20.9347L12.0597 18.1167Z" fill="currentColor"/>
</svg>
