<svg width="25" height="24" viewBox="0 0 25 24" fill="none" xmlns="http://www.w3.org/2000/svg">
<path d="M10.447 11.2334C9.82993 10.2672 11.0892 9.64921 11.3779 9.09002C11.5608 8.73556 11.1983 8.2141 11.1983 8.2141C10.8437 7.6567 10.0414 6.41848 9.66902 5.92478C9.20357 5.30765 8.63839 5.55981 8.5852 5.6129C8.532 5.66598 6.72449 6.5419 6.98938 8.57907C7.32848 11.1869 10.5999 15.2015 13.858 16.8472C17.1162 18.4928 18.4578 16.5521 18.712 16.0244C18.9216 15.5891 19.0197 15.0008 18.712 14.81C18.0914 14.4251 16.7371 13.5731 16.285 13.244C15.7198 12.8326 15.378 13.0012 15.1945 13.244C14.7794 13.7933 14.7794 14.2194 13.858 14.2194C13.3988 14.2194 11.2183 12.4411 10.447 11.2334Z" stroke="currentColor" stroke-width="1.2"/>
<path d="M23.8347 11.4949C23.8347 17.49 18.7735 22.3898 12.4801 22.3898C10.7583 22.3898 9.12812 22.0224 7.66836 21.3661C7.39359 21.2426 7.10417 21.2702 6.89619 21.3132C6.67331 21.3594 6.44 21.4461 6.2167 21.5445C5.76994 21.7414 5.26482 22.0303 4.80496 22.2961C4.77238 22.3149 4.74004 22.3336 4.70795 22.3522C4.26999 22.6054 3.87967 22.8312 3.56683 22.9764C3.5657 22.9769 3.56459 22.9775 3.56347 22.978C3.56639 22.939 3.57005 22.8975 3.57448 22.8532C3.61037 22.4942 3.68654 22.0499 3.76962 21.5653C3.77836 21.5143 3.78718 21.4629 3.79604 21.4111C3.88625 20.8831 3.98007 20.3155 4.01384 19.8363C4.03071 19.5969 4.03463 19.3553 4.00853 19.1382C3.9847 18.9398 3.92578 18.6649 3.73797 18.4477C2.10428 16.5588 1.12539 14.136 1.12539 11.4949C1.12539 5.49976 6.18665 0.6 12.4801 0.6C18.7735 0.6 23.8347 5.49976 23.8347 11.4949ZM3.20244 23.107C3.20279 23.1066 3.2083 23.1057 3.21797 23.1055C3.20693 23.1073 3.2021 23.1074 3.20244 23.107ZM3.56472 23.348C3.5667 23.354 3.56738 23.3574 3.56723 23.3577C3.56708 23.3579 3.56609 23.3549 3.56472 23.348Z" stroke="currentColor" stroke-width="1.2"/>
</svg>
