<svg width="184" height="178" viewBox="0 0 184 178" fill="none" xmlns="http://www.w3.org/2000/svg">
<path d="M30.328 68V16.88H52C54.352 16.88 56.512 17.36 58.48 18.32C60.448 19.28 62.152 20.576 63.592 22.208C65.08 23.84 66.232 25.664 67.048 27.68C67.864 29.696 68.272 31.76 68.272 33.872C68.272 36.752 67.6 39.488 66.256 42.08C64.912 44.672 63.064 46.784 60.712 48.416C58.36 50.048 55.576 50.864 52.36 50.864H40.264V68H30.328ZM40.264 42.152H51.784C52.984 42.152 54.064 41.816 55.024 41.144C55.984 40.472 56.752 39.512 57.328 38.264C57.904 36.968 58.192 35.504 58.192 33.872C58.192 32.096 57.856 30.584 57.184 29.336C56.56 28.088 55.72 27.152 54.664 26.528C53.656 25.904 52.552 25.592 51.352 25.592H40.264V42.152ZM75.1874 68V16.88H93.7634C99.3314 16.88 103.987 18.032 107.731 20.336C111.475 22.592 114.283 25.664 116.155 29.552C118.027 33.392 118.963 37.664 118.963 42.368C118.963 47.552 117.931 52.064 115.867 55.904C113.803 59.744 110.875 62.72 107.083 64.832C103.339 66.944 98.8994 68 93.7634 68H75.1874ZM108.955 42.368C108.955 39.056 108.355 36.152 107.155 33.656C105.955 31.112 104.227 29.144 101.971 27.752C99.7154 26.312 96.9794 25.592 93.7634 25.592H85.1234V59.288H93.7634C97.0274 59.288 99.7874 58.568 102.043 57.128C104.299 55.64 106.003 53.624 107.155 51.08C108.355 48.488 108.955 45.584 108.955 42.368ZM126.726 68V16.88H161.07V25.592H136.662V38.768H156.966V46.832H136.662V68H126.726Z" fill="currentColor"/>
<path d="M94 82L93.9976 123" stroke="currentColor" stroke-width="10" stroke-linecap="round" stroke-linejoin="round"/>
<path d="M118.424 110.683L93.9784 135.129L69.533 110.683" stroke="currentColor" stroke-width="10" stroke-linecap="round" stroke-linejoin="round"/>
<path d="M5 147.429V154.286C5 164.227 13.0589 172.286 23 172.286H161C170.941 172.286 179 164.227 179 154.286V147.429" stroke="currentColor" stroke-width="10" stroke-linecap="round"/>
<line x1="29.5312" y1="154.857" x2="154.47" y2="154.857" stroke="currentColor" stroke-width="10" stroke-linecap="round"/>
</svg>
