<svg width="23" height="23" viewBox="0 0 23 23" fill="none" xmlns="http://www.w3.org/2000/svg">
<path d="M7.29224 11.1939C6.23182 9.53352 8.39599 8.47149 8.89203 7.51049C9.20646 6.90134 8.58349 6.00519 8.58349 6.00519C7.97405 5.04727 6.59519 2.91933 5.95528 2.07089C5.1554 1.01034 4.18411 1.44368 4.09269 1.53491C4.00128 1.62614 0.894985 3.13144 1.35022 6.6324C1.93298 11.1141 7.55506 18.0134 13.1543 20.8415C18.7535 23.6696 21.0591 20.3344 21.496 19.4274C21.8563 18.6794 22.0248 17.6685 21.496 17.3405C20.4294 16.6791 18.1022 15.2149 17.3251 14.6493C16.3538 13.9422 15.7664 14.232 15.4511 14.6493C14.7377 15.5933 14.7377 16.3256 13.1543 16.3256C12.365 16.3256 8.61777 13.2694 7.29224 11.1939Z" stroke="currentColor" stroke-width="1.2"/>
</svg>
