<?xml version="1.0" standalone="no"?>
<!DOCTYPE svg PUBLIC "-//W3C//DTD SVG 20010904//EN"
 "http://www.w3.org/TR/2001/REC-SVG-20010904/DTD/svg10.dtd">
<svg version="1.0" xmlns="http://www.w3.org/2000/svg"
 width="700.000000pt" height="700.000000pt" viewBox="0 0 700.000000 700.000000"
 preserveAspectRatio="xMidYMid meet">
<metadata>
Created by potrace 1.14, written by Peter Selinger 2001-2017
</metadata>
<g transform="translate(0.000000,700.000000) scale(0.100000,-0.100000)"
fill="#000000" stroke="none">
<path d="M0 3500 l0 -3500 3500 0 3500 0 0 3500 0 3500 -3500 0 -3500 0 0
-3500z m2062 2604 c188 -113 997 -600 1796 -1081 l1452 -875 0 -1719 0 -1719
-1820 0 -1820 0 0 2816 0 2816 24 -15 c13 -9 179 -109 368 -223z"/>
<path d="M1730 3501 l0 -2731 1760 0 1760 0 -2 1672 -3 1672 -1730 1043 c-952
573 -1742 1049 -1757 1058 l-28 16 0 -2730z m397 -27 c40 -30 62 -81 69 -162
l7 -72 -35 0 -35 0 -7 71 c-6 56 -13 76 -31 95 -32 32 -84 32 -122 0 l-28 -24
0 -250 0 -250 24 -26 c30 -31 87 -35 121 -8 23 19 39 77 40 150 0 42 0 42 36
42 l37 0 -6 -80 c-9 -137 -60 -200 -161 -200 -71 0 -116 25 -143 80 -22 42
-23 55 -23 289 0 230 1 247 21 289 16 33 33 49 63 63 52 25 135 21 173 -7z
m381 -3 c62 -44 67 -70 67 -341 0 -225 -2 -248 -20 -284 -29 -58 -64 -79 -138
-84 -52 -3 -67 0 -96 20 -71 47 -76 67 -79 313 -5 292 10 354 92 391 43 20
137 12 174 -15z m2129 3 c40 -30 63 -84 70 -163 l6 -71 -37 0 c-36 0 -36 0
-36 43 0 60 -17 114 -43 132 -32 23 -81 19 -114 -9 l-28 -24 0 -250 0 -250 24
-26 c18 -19 35 -26 61 -26 69 0 100 48 100 158 l0 52 36 0 37 0 -5 -78 c-8
-136 -61 -202 -162 -202 -68 0 -115 26 -143 80 -22 41 -23 53 -23 279 0 130 4
251 10 270 12 41 44 79 85 97 41 20 129 13 162 -12z m-1893 -91 c71 -303 109
-457 112 -448 2 6 32 132 67 280 l64 270 47 3 46 3 0 -365 0 -366 -35 0 -35 0
-1 258 -1 257 -25 -105 c-14 -58 -41 -172 -62 -255 l-36 -150 -31 -3 -32 -3
-56 233 c-31 128 -57 240 -58 248 -2 8 -5 -95 -8 -230 l-5 -245 -32 -3 -33 -3
0 365 0 366 44 0 44 0 26 -107z m546 -168 c36 -151 67 -275 71 -275 3 0 34
124 70 275 l64 275 47 0 48 0 -2 -362 -3 -363 -32 -3 -33 -3 -1 258 c0 142 -3
251 -7 243 -3 -8 -31 -123 -62 -255 l-56 -240 -33 0 -34 0 -61 255 -61 255 -3
-258 -2 -258 -33 3 -32 3 -3 363 -2 362 48 0 48 0 64 -275z m650 240 l0 -35
-115 0 -115 0 0 -125 0 -124 98 -3 97 -3 3 -32 3 -33 -101 0 -101 0 3 -132 3
-133 113 -3 112 -3 0 -34 0 -35 -150 0 -150 0 0 365 0 365 150 0 150 0 0 -35z
m307 15 c43 -26 63 -68 70 -148 6 -79 -8 -140 -42 -180 -22 -27 -23 -31 -9
-43 35 -29 48 -74 54 -189 3 -63 10 -123 14 -132 7 -15 3 -18 -27 -18 -53 0
-60 17 -65 150 -5 145 -14 158 -111 167 l-60 6 -3 -159 -3 -159 -35 0 -35 0
-3 363 -2 362 112 0 c94 0 118 -3 145 -20z m-2125 -917 c51 -29 68 -73 68
-176 0 -96 -17 -149 -52 -168 -20 -11 -20 -11 1 -25 37 -26 46 -56 51 -180 4
-80 10 -127 19 -138 12 -14 9 -16 -28 -16 -54 0 -61 18 -61 150 0 90 -2 101
-24 126 -20 24 -32 28 -90 32 l-66 4 0 -156 0 -156 -35 0 -35 0 0 366 0 367
109 -5 c83 -4 118 -10 143 -25z m438 -8 l0 -35 -115 0 -115 0 0 -130 0 -130
95 0 95 0 0 -35 0 -35 -95 0 -95 0 0 -135 0 -135 115 0 115 0 0 -30 0 -30
-150 0 -150 0 0 365 0 365 150 0 150 0 0 -35z m362 -315 c42 -190 77 -353 77
-362 1 -14 -7 -18 -33 -18 l-34 0 -17 75 -16 75 -99 0 c-111 0 -99 9 -121 -92
-12 -57 -13 -58 -46 -58 -18 0 -33 4 -33 9 0 13 148 692 155 709 3 9 19 12 47
10 l43 -3 77 -345z m198 15 l0 -335 110 0 110 0 0 -30 0 -30 -145 0 -145 0 0
365 0 365 35 0 35 0 0 -335z m-1180 -750 l0 -165 95 0 95 0 2 163 3 162 38 3
37 3 0 -365 0 -366 -40 0 -40 0 0 165 0 165 -95 0 -95 0 0 -165 0 -165 -35 0
-35 0 0 365 0 365 35 0 35 0 0 -165z m570 147 c21 -10 44 -34 59 -62 23 -41
25 -56 29 -235 5 -206 -6 -314 -36 -354 -38 -51 -69 -66 -137 -66 -77 0 -109
20 -143 86 -22 43 -23 51 -20 289 3 224 5 248 24 284 11 22 35 47 54 58 44 23
124 23 170 0z m290 -259 c36 -149 67 -274 70 -277 3 -3 35 120 71 272 l65 277
47 3 47 3 0 -365 0 -366 -35 0 -35 0 -1 253 c0 138 -4 243 -8 232 -5 -11 -33
-125 -62 -253 l-54 -233 -35 3 -34 3 -57 235 c-30 129 -58 242 -62 250 -3 8
-6 -99 -6 -237 l-1 -253 -35 0 -35 0 0 358 c0 197 3 362 7 366 4 4 25 6 48 4
l40 -3 65 -272z m650 242 l0 -35 -115 0 -115 0 0 -130 0 -130 101 0 100 0 -3
-32 -3 -33 -97 -3 -98 -3 0 -129 0 -130 115 0 115 0 0 -35 0 -35 -150 0 -150
0 0 365 0 365 150 0 150 0 0 -35z"/>
<path d="M2350 3412 c-13 -10 -25 -36 -31 -62 -11 -58 -11 -382 0 -440 11 -53
40 -80 86 -80 90 0 95 17 95 300 0 249 -6 281 -52 294 -41 10 -75 6 -98 -12z"/>
<path d="M4070 3291 l0 -141 60 0 c51 0 65 4 85 25 22 22 25 32 25 104 0 83
-12 126 -38 136 -8 3 -42 8 -74 12 l-58 6 0 -142z"/>
<path d="M1948 2504 c-5 -4 -8 -67 -8 -141 l0 -133 55 0 c65 0 110 20 119 52
3 13 6 55 6 95 0 61 -4 76 -23 99 -20 23 -34 28 -83 32 -32 2 -62 0 -66 -4z"/>
<path d="M2757 2257 c-20 -95 -37 -175 -37 -179 0 -5 36 -8 81 -8 79 0 81 1
76 23 -3 12 -20 90 -38 172 -18 83 -35 153 -38 157 -4 4 -23 -70 -44 -165z"/>
<path d="M2359 1564 c-24 -25 -24 -29 -27 -242 -2 -119 -1 -231 3 -250 14 -77
94 -107 152 -58 l28 24 3 233 c2 128 0 244 -3 256 -16 66 -109 87 -156 37z"/>
</g>
</svg>
